<svg width="187px" height="31px" class="logo-img" viewBox="0 0 187 31" version="1.1"
     xmlns="http://www.w3.org/2000/svg" xmlns:xlink="http://www.w3.org/1999/xlink">
    <g id="Welcome" transform="translate(37.000000, 5.000000)">
        <path d="M19.6841379,12.001 C19.6313793,12.554 19.5537931,13.1100001 19.4534483,13.661 C19.3531035,14.217 19.2196552,14.761 19.0551725,15.295 C18.8896552,15.828 18.6962069,16.313 18.4727586,16.747 C18.1644827,17.383 17.7651725,17.92 17.2758621,18.366 C16.7824138,18.81 16.2206896,19.181 15.5855173,19.477 C15.1158621,19.695 14.6306896,19.864 14.1268965,19.982 C13.6251725,20.102 13.1203448,20.184 12.6072414,20.2360001 C12.0972414,20.284 11.5748275,20.308 11.0431035,20.309 C10.53,20.309 10.02,20.309 9.50689655,20.308 L0.822413793,20.308 L0.822413793,0.516 L9.50896552,0.516 C10.347931,0.517 11.2013793,0.555 12.0713793,0.634 C12.9413793,0.715 13.7710345,0.887 14.5572414,1.153 C15.3465517,1.422 16.0717242,1.797 16.7368965,2.281 C17.4010345,2.765 17.9482758,3.406 18.3806896,4.196 C18.8513793,5.086 19.1968965,6.105 19.4234483,7.253 C19.647931,8.399 19.7596552,9.467 19.7596552,10.457 C19.7617242,10.933 19.7348275,11.446 19.6841379,12.001 L19.6841379,12.001 L19.6841379,12.001 Z M14.6803448,8 C14.5044827,7.14 14.2148275,6.39 13.8031035,5.747 C13.3127586,4.989 12.6868965,4.504 11.9317242,4.295 C11.1713793,4.085 10.3644828,3.98 9.50482758,3.98 L5.17137931,3.979 L5.17241379,16.846 L9.5037931,16.845 C9.99310345,16.845 10.5434483,16.796 11.1465517,16.697 C11.7506896,16.597 12.2668965,16.4350001 12.7003448,16.216 C13.1493104,15.975 13.5175862,15.62 13.8062069,15.151 C14.0896552,14.68 14.3151725,14.17 14.4786207,13.62 C14.642069,13.071 14.762069,12.511 14.8324138,11.942 C14.9048275,11.372 14.9410345,10.867 14.9410345,10.427 C14.942069,9.668 14.8541379,8.859 14.6803448,8 L14.6803448,8 L14.6803448,8 Z M27.3403448,20.289 C26.7858621,20.29 26.2272414,20.285 25.6624138,20.2729999 C25.0996552,20.264 24.5513793,20.191 24.0206896,20.052 C23.0762069,19.815 22.3572414,19.305 21.8648275,18.525 C21.3724138,17.743 21.1272414,16.907 21.1282758,16.016 C21.1272414,15.3239999 21.2793104,14.641 21.5741379,13.97 C21.872069,13.297 22.3189655,12.742 22.9148275,12.306 C23.1827586,12.108 23.5013793,11.954 23.8696552,11.847 C24.2410345,11.739 24.6258621,11.659 25.0272414,11.609 C25.4275862,11.56 25.8227586,11.531 26.2117242,11.52 C26.6048275,11.511 26.9617242,11.506 27.2927586,11.506 L32.3472414,11.506 L32.3451725,11.269 C32.3472414,10.754 32.2748275,10.343 32.132069,10.036 C31.9882758,9.73 31.7793104,9.491 31.5031035,9.324 C31.2248275,9.156 30.8927586,9.047 30.5037931,8.997 C30.1148275,8.947 29.6834483,8.92299999 29.2148275,8.922 L22.2734483,8.922 L22.2724138,5.83599999 L29.2127586,5.835 C29.4993104,5.837 29.7817242,5.838 30.0589655,5.84999999 C30.3341379,5.86 30.6165517,5.865 30.902069,5.86399999 C32.1693104,5.90599999 33.2524138,6.161 34.1493104,6.636 C35.0451725,7.113 35.6968965,7.972 36.1055173,9.221 C36.2689655,9.715 36.3651725,10.2 36.3962069,10.673 C36.4262069,11.15 36.4417242,11.645 36.4406896,12.1599999 L36.4427586,20.289 L27.3403448,20.289 L27.3403448,20.289 L27.3403448,20.289 Z M32.3472414,14.599 L26.8924138,14.6 C26.4610345,14.6 26.0958621,14.707 25.7968965,14.923 C25.5,15.14 25.3510345,15.474 25.3510345,15.927 C25.3510345,16.242 25.4172414,16.483 25.5517242,16.651 C25.6841379,16.817 25.8589655,16.9409999 26.0751725,17.0179999 C26.2913793,17.096 26.5324138,17.147 26.7993104,17.167 C27.0651725,17.185 27.3227586,17.195 27.5689655,17.195 L32.3441379,17.194 L32.3472414,14.599 L32.3472414,14.599 L32.3472414,14.599 Z M45.5213793,20.309 C44.5013793,20.307 43.5806896,20.137 42.7696552,19.789 C41.9513793,19.442 41.3503448,18.774 40.9655173,17.783 C40.8031035,17.307 40.7006896,16.829 40.6593104,16.342 C40.6189655,15.856 40.5982758,15.365 40.5993104,14.871 L40.5993104,8.928 L37.9862069,8.92700001 L37.9872414,5.837 L40.5982758,5.836 L40.5993104,0.516 L44.6937931,0.517 L44.6927586,5.835 L48.5006896,5.835 L48.4996552,8.92700001 L44.6937931,8.929 L44.6937931,14.1880001 C44.6917242,14.505 44.697931,14.9 44.7072414,15.375 C44.7186207,15.853 44.8262069,16.228 45.0310345,16.5050001 C45.2151725,16.745 45.4489655,16.916 45.7375862,17.027 C46.0241379,17.134 46.3293104,17.2050001 46.6572414,17.234 C46.9862069,17.263 47.312069,17.2680001 47.64,17.249 C47.97,17.229 48.2544827,17.22 48.5006896,17.2190001 L48.5006896,20.309 L45.5213793,20.309 L45.5213793,20.309 L45.5213793,20.309 Z M55.862069,20.289 C55.3086207,20.289 54.7468965,20.286 54.1851725,20.273 C53.6203448,20.265 53.07,20.19 52.5382758,20.05 C51.5948275,19.815 50.877931,19.3050001 50.3865517,18.523 C49.8951725,17.743 49.647931,16.907 49.647931,16.0150001 C49.6489655,15.324 49.7968965,14.642 50.0958621,13.969 C50.3917242,13.296 50.8396552,12.742 51.4365517,12.306 C51.7034483,12.1090001 52.022069,11.9550001 52.3913793,11.848 C52.7617242,11.7380001 53.1465517,11.66 53.5468965,11.608 C53.9472414,11.561 54.3424138,11.532 54.7313793,11.521 C55.1255173,11.511 55.4824138,11.507 55.8113793,11.506 L60.867931,11.507 L60.867931,11.269 C60.8668965,10.755 60.7965517,10.344 60.6517242,10.037 C60.5089655,9.729 60.3,9.493 60.0227586,9.324 C59.7475862,9.157 59.4134483,9.04600001 59.0255173,8.99700001 C58.6365517,8.949 58.2062069,8.923 57.7344827,8.923 L50.7941379,8.922 L50.7931035,5.836 L57.7344827,5.836 C58.0210345,5.835 58.3024138,5.84000001 58.5806896,5.85 C58.8548275,5.86 59.1362069,5.865 59.4237931,5.864 C60.692069,5.905 61.7731035,6.161 62.67,6.636 C63.5648275,7.11400001 64.2186207,7.973 64.6272414,9.22 C64.7886207,9.716 64.8858621,10.2 64.9148275,10.675 C64.95,11.15 64.9634483,11.645 64.9613793,12.161 L64.9624138,20.289 L55.862069,20.289 L55.862069,20.289 L55.862069,20.289 Z M60.867931,14.598 L55.412069,14.598 C54.9817242,14.598 54.6165517,14.7060001 54.3186207,14.922 C54.0186207,15.1400001 53.8717242,15.475 53.8717242,15.927 C53.8717242,16.242 53.937931,16.4840001 54.0724138,16.65 C54.2058621,16.817 54.3796552,16.94 54.5968965,17.017 C54.81,17.099 55.0531035,17.145 55.3189655,17.167 C55.5868965,17.185 55.8455173,17.196 56.0917242,17.196 L60.8668965,17.196 L60.867931,14.598 L60.867931,14.598 L60.867931,14.598 Z"
              id="Fill-1" fill="#FFFFFF"></path>
        <path d="M81.9341379,20.309 C81.7706896,19.853 81.6672414,19.39 81.6289655,18.914 C81.5865517,18.439 81.5348275,17.965 81.4737931,17.49 C81.3693104,16.581 81.2037931,15.823 80.9658621,15.221 C80.7289655,14.619 80.3968965,14.137 79.9686207,13.784 C79.5362069,13.427 78.9951725,13.176 78.3382758,13.027 C77.6813793,12.8790001 76.8837931,12.804 75.9403448,12.804 L72.4386207,12.804 L72.4365517,20.309 L68.0865517,20.309 L68.0865517,0.517 L78.0982758,0.516 C78.8544827,0.517 79.6282758,0.541 80.4186207,0.59 C81.2048275,0.640000001 81.9589655,0.763 82.6737931,0.961 C83.8841379,1.298 84.8244827,1.931 85.5,2.862 C86.1755173,3.79 86.5137931,4.85 86.5148275,6.03600001 C86.5127586,7.402 86.2148275,8.593 85.6210345,9.612 C85.0272414,10.63 84.0227586,11.356 82.6127586,11.792 C83.0606896,11.951 83.4455173,12.105 83.7631035,12.251 C84.0806896,12.401 84.3610345,12.579 84.6082758,12.787 C84.8544827,12.993 85.0696552,13.242 85.2568965,13.529 C85.437931,13.816 85.622069,14.178 85.8051725,14.612 C86.0927586,15.265 86.2531035,15.9380001 86.282069,16.629 C86.3141379,17.321 86.37,18.015 86.4537931,18.706 C86.5137931,19.22 86.6368965,19.755 86.82,20.309 L81.9341379,20.309 L81.9341379,20.309 L81.9341379,20.309 Z M81.4489655,5.244 C81.2865517,4.908 81.0651725,4.65 80.7889655,4.468 C80.5137931,4.285 80.1817242,4.158 79.7927586,4.088 C79.4037931,4.014 78.9848275,3.979 78.5368965,3.978 L72.4365517,3.98 L72.4375862,9.341 L78.5368965,9.339 C79.5372414,9.339 80.3131035,9.143 80.8644827,8.747 C81.4189655,8.351 81.6931035,7.613 81.692069,6.54 C81.6931035,6.012 81.6113793,5.58 81.4489655,5.244 L81.4489655,5.244 L81.4489655,5.244 Z M103.215517,16.37 C102.817241,17.273 102.263793,18.03 101.55931,18.644 C100.854828,19.256 100.014828,19.724 99.0434483,20.039 C98.0731035,20.3569999 97.0044827,20.515 95.8406896,20.515 C93.3455173,20.516 91.4131035,19.856 90.0434483,18.54 C88.6727586,17.223 87.987931,15.354 87.987931,12.938 C87.987931,11.8099999 88.1803448,10.789 88.5724138,9.879 C88.9582758,8.967 89.5013793,8.2 90.1975862,7.575 C90.8927586,6.952 91.7255173,6.471 92.697931,6.134 C93.6682758,5.799 94.7255173,5.629 95.8717242,5.629 C98.3658621,5.63 100.312759,6.292 101.713448,7.62 C103.113104,8.947 103.814483,10.83 103.816552,13.267 C103.815517,14.434 103.614828,15.47 103.215517,16.37 L103.215517,16.37 L103.215517,16.37 Z M99.4075862,11.358 C99.2865517,10.832 99.0827586,10.371 98.7982758,9.982 C98.5127586,9.59200001 98.1310345,9.283 97.6531035,9.06000001 C97.1793104,8.835 96.5927586,8.722 95.9006896,8.721 C95.1693104,8.722 94.5641379,8.838 94.0882758,9.07400001 C93.6103448,9.308 93.2358621,9.625 92.9606896,10.025 C92.6824138,10.425 92.4910345,10.894 92.3803448,11.432 C92.2665517,11.97 92.2117242,12.548 92.2127586,13.175 C92.2106896,13.78 92.277931,14.3420001 92.4093104,14.8600001 C92.5417242,15.376 92.7558621,15.825 93.0506896,16.207 C93.3455173,16.588 93.7313793,16.886 94.2103448,17.1000001 C94.6851725,17.315 95.2727586,17.4220001 95.9617242,17.4220001 C96.6517242,17.4220001 97.2331035,17.306 97.7017242,17.071 C98.1672414,16.837 98.5448275,16.525 98.8293104,16.1340001 C99.1117242,15.745 99.3103448,15.279 99.4231035,14.742 C99.5348275,14.204 99.5906896,13.643 99.5927586,13.057 C99.5917242,12.453 99.5296552,11.886 99.4075862,11.358 L99.4075862,11.358 L99.4075862,11.358 Z M120.575173,16.5050001 C120.064138,17.613 119.227242,18.525 118.062414,19.238 C117.222414,19.755 116.37931,20.0610001 115.52069,20.162 C114.66,20.259 113.753793,20.309 112.793793,20.308 L106.112069,20.309 L106.112069,0.517 L110.206552,0.517 L110.207586,5.836 L113.855172,5.835 C116.209655,5.836 118.044827,6.43500001 119.361725,7.633 C120.68069,8.833 121.342758,10.581 121.342758,12.8790001 C121.343793,14.187 121.086207,15.396 120.575173,16.5050001 L120.575173,16.5050001 L120.575173,16.5050001 Z M116.30069,9.997 C115.671725,9.285 114.664138,8.928 113.276897,8.928 L110.207586,8.928 L110.206552,17.217 L113.275862,17.217 C114.602069,17.216 115.593104,16.816 116.254138,16.013 C116.913104,15.211 117.246207,14.206 117.246207,12.9980001 C117.246207,11.712 116.929655,10.71 116.30069,9.997 L116.30069,9.997 L116.30069,9.997 Z M137.876896,16.37 C137.476552,17.272 136.925173,18.03 136.218621,18.6419999 C135.515173,19.2579999 134.677242,19.723 133.706896,20.039 C132.735517,20.3569999 131.664827,20.516 130.5,20.516 C128.004827,20.516 126.072414,19.856 124.704827,18.539 C123.333104,17.223 122.651379,15.356 122.650345,12.938 C122.64931,11.809 122.844827,10.789 123.23069,9.879 C123.62069,8.968 124.162758,8.2 124.858965,7.575 C125.553104,6.952 126.386896,6.471 127.356207,6.135 C128.329655,5.799 129.385862,5.63 130.531035,5.629 C133.027242,5.629 134.974138,6.293 136.374827,7.62 C137.774483,8.948 138.473793,10.828 138.474827,13.265 C138.475862,14.434 138.275173,15.47 137.876896,16.37 L137.876896,16.37 L137.876896,16.37 Z M134.068965,11.359 C133.947931,10.831 133.743104,10.371 133.457586,9.981 C133.174138,9.592 132.792414,9.285 132.315517,9.059 C131.838621,8.835 131.253104,8.722 130.562069,8.722 C129.83069,8.721 129.223448,8.84 128.747586,9.074 C128.268621,9.309 127.895173,9.626 127.62,10.026 C127.343793,10.427 127.150345,10.895 127.039655,11.432 C126.925862,11.97 126.874138,12.548 126.873104,13.174 C126.874138,13.779 126.93931,14.341 127.068621,14.859 C127.203104,15.376 127.416207,15.825 127.708965,16.2059999 C128.004827,16.587 128.391725,16.884 128.87069,17.1 C129.346552,17.315 129.93,17.422 130.623104,17.422 C131.315173,17.422 131.892414,17.307 132.36,17.07 C132.829655,16.837 133.206207,16.524 133.489655,16.134 C133.773104,15.742 133.972758,15.279 134.084483,14.7429999 C134.193104,14.205 134.251035,13.6439999 134.251035,13.057 C134.251035,12.453 134.193104,11.886 134.068965,11.359 L134.068965,11.359 L134.068965,11.359 Z M146.773448,20.309 C145.750345,20.307 144.834827,20.135 144.017586,19.789 C143.203448,19.442 142.601379,18.775 142.215517,17.783 C142.052069,17.308 141.949655,16.829 141.90931,16.3440001 C141.867931,15.857 141.848275,15.366 141.848275,14.872 L141.850345,8.928 L139.237242,8.928 L139.237242,5.836 L141.848275,5.836 L141.847242,0.517 L145.942758,0.516 L145.942758,5.836 L149.751725,5.835 L149.75069,8.928 L145.942758,8.929 L145.942758,14.187 C145.943793,14.505 145.946896,14.901 145.957242,15.377 C145.968621,15.853 146.075173,16.228 146.281035,16.506 C146.464138,16.745 146.7,16.9180001 146.987586,17.026 C147.274138,17.134 147.580345,17.203 147.90931,17.2330001 C148.235173,17.264 148.563104,17.27 148.891035,17.249 C149.218965,17.229 149.504483,17.218 149.749655,17.2190001 L149.751725,20.309 L146.773448,20.309 L146.773448,20.309 L146.773448,20.309 Z"
              id="Fill-2" fill="#2D8FE2"></path>
    </g>
    <path d="M17.7184204,7.10703347 C16.9659614,7.10703347 16.3684204,8.05933117 16.3684204,9.22066983 C16.3684204,10.3820085 16.977027,11.3343062 17.7184204,11.3343062 C18.4708794,11.3343062 19.0684204,10.3820085 19.0684204,9.22066983 C19.0684204,8.05933117 18.4598139,7.10703347 17.7184204,7.10703347 Z M9.45,7.04545455 C8.69754098,7.04545455 8.1,7.99775225 8.1,9.15909091 C8.1,10.3204296 8.70860656,11.2727273 9.45,11.2727273 C10.1913934,11.2727273 10.8,10.3204296 10.8,9.15909091 C10.8,7.99775225 10.1913934,7.04545455 9.45,7.04545455 Z M26.0464491,5.69837508 L25.9428023,5.67738659 L25.9428023,3.36865267 C25.9428023,1.51117129 24.4399232,0 22.615739,0 L4.37389635,0 C2.53934741,0 1.04683301,1.52166554 1.04683301,3.36865267 L1.04683301,5.67738659 L0.94318618,5.69837508 C0.414587332,5.78232905 0,6.27555856 0,6.82125931 L0,10.5886933 C0,11.134394 0.414587332,11.6171293 0.94318618,11.7115775 L1.04683301,11.732566 L1.04683301,15.5209885 C1.04683301,17.3784699 2.54971209,18.8896412 4.37389635,18.8896412 L9.58733205,18.8896412 L9.58733205,19.781652 L9.14165067,19.781652 L7.50403071,20.4532837 L7.50403071,20.6946513 L6.8925144,20.6946513 L6.8925144,21.3452945 C5.62802303,21.40826 4.61228407,22.478673 4.61228407,23.7799594 L4.61228407,24.5145565 L4.36353167,24.5145565 C4.06295585,24.8188896 3.88675624,24.9972918 3.58618042,25.3016249 L3.58618042,27.4739336 L4.36353167,28.261002 L5.99078695,28.261002 L6.32245681,27.9251862 L6.32245681,26.8127962 L6.96506718,26.8127962 L6.96506718,25.0182803 C6.96506718,24.7454299 6.74740883,24.5145565 6.46756238,24.5145565 L6.16698656,24.5145565 L6.16698656,23.7799594 C6.16698656,23.3496953 6.47792706,22.992891 6.8925144,22.9299255 L6.8925144,23.8009479 L7.59731286,23.8009479 L7.59731286,26.4140149 L8.45758157,27.4004739 L8.45758157,28.7542316 C7.79424184,28.7542316 7.07907869,28.817197 6.13589251,29.6462424 L6.13589251,31 L13.1216891,31 L13.1216891,28.3344617 L13.9715931,28.3344617 L13.9715931,30.9685173 L20.9573896,30.9685173 L20.9573896,29.6147596 C20.0142035,28.7857143 19.2886756,28.7227488 18.6357006,28.7227488 L18.6357006,27.3689912 L19.5270633,26.3825322 L19.5270633,23.7694651 L20.2007678,23.7694651 L20.2007678,22.8984428 C20.6153551,22.950914 20.9366603,23.3182126 20.9366603,23.7484766 L20.9366603,24.4830738 L20.6049904,24.4830738 C20.3355086,24.4830738 20.1074856,24.7034529 20.1074856,24.9867976 L20.1074856,26.7813135 L20.750096,26.7813135 L20.750096,27.9146919 L21.0817658,28.2505078 L22.7090211,28.2505078 C23.0095969,27.9461747 23.1857965,27.7677725 23.4863724,27.4634394 L23.4863724,25.2911307 L22.7090211,24.5040623 L22.4706334,24.5040623 L22.4706334,23.7694651 C22.4706334,22.4681787 21.4548944,21.3977657 20.1800384,21.3348003 L20.1800384,20.6841571 L19.5685221,20.6841571 L19.5685221,20.4427894 L17.9309021,19.7711578 L17.4852207,19.7711578 L17.4852207,18.8791469 L22.6261036,18.8791469 C24.4606526,18.8791469 25.953167,17.3574814 25.953167,15.5104942 L25.953167,11.7220718 L26.0568138,11.7010833 C26.5854127,11.6171293 27,11.1238998 27,10.5781991 L27,6.82125931 C26.9896353,6.27555856 26.575048,5.78232905 26.0464491,5.69837508 Z M24.9845581,15.0348899 C24.9845581,16.5810519 23.7939499,17.8530717 22.346745,17.8530717 L4.67237116,17.8530717 C3.22516633,17.8530717 2.03455811,16.5810519 2.03455811,15.0348899 L2.03455811,3.76216264 C2.03455811,2.21600063 3.22516633,0.943980824 4.67237116,0.943980824 L22.3364812,0.943980824 C23.783686,0.943980824 24.9742942,2.21600063 24.9742942,3.76216264 L24.9742942,15.0348899 L24.9845581,15.0348899 Z"
          id="Shape" fill="#FFFFFF" fill-rule="nonzero"></path>
</svg>